<svg width="130" height="34" viewBox="0 0 130 34" fill="none" xmlns="http://www.w3.org/2000/svg">
<g clip-path="url(#clip0_976_891)">
<path d="M0 0.219727H15.294C26.307 0.219727 33.858 6.76748 33.858 16.8265C33.858 26.8854 26.307 33.4332 15.294 33.4332H0V0.219727ZM14.9086 27.1219C21.5938 27.1219 25.9699 23.184 25.9699 16.8265C25.9699 10.4689 21.5938 6.531 14.9086 6.531H7.79132V27.1236H14.9086V27.1219Z" fill="#A01717"/>
<path d="M57.4376 26.3148H41.8083L38.8269 33.4315H30.8438L45.8474 0.219727H53.5419L68.5957 33.4332H60.4207L57.4393 26.3165L57.4376 26.3148ZM54.9851 20.4782L49.6463 7.7631L44.3075 20.4782H54.9834H54.9851Z" fill="#A01717"/>
<path d="M68.0654 29.1611L72.3932 24.0374C74.22 26.457 76.2404 27.6908 78.6446 27.6908C81.7711 27.6908 83.4061 25.8401 83.4061 22.1867V6.38706H71.5757V0.219727H91.149V21.76C91.149 29.9682 86.9647 34.0021 79.03 34.0021C74.5087 34.0021 70.5179 32.2936 68.0654 29.1628V29.1611Z" fill="#A01717"/>
<path d="M130 0L115.428 33.2134H107.734L93.209 0H101.626L111.87 23.7234L122.257 0H130Z" fill="#A01717"/>
</g>
<defs>
<clipPath id="clip0_976_891">
<rect width="130" height="34" fill="white"/>
</clipPath>
</defs>
</svg>
