<svg width="164" height="35" viewBox="0 0 164 35" fill="none" xmlns="http://www.w3.org/2000/svg">
<path d="M0.14025 34V0.399998H15.4043C19.0523 0.399998 22.2683 1.104 25.0523 2.512C27.8363 3.888 30.0123 5.824 31.5803 8.32C33.1483 10.816 33.9323 13.776 33.9323 17.2C33.9323 20.592 33.1483 23.552 31.5803 26.08C30.0123 28.576 27.8363 30.528 25.0523 31.936C22.2683 33.312 19.0523 34 15.4043 34H0.14025ZM7.91625 27.616H15.0203C17.2603 27.616 19.1963 27.2 20.8282 26.368C22.4923 25.504 23.7723 24.288 24.6683 22.72C25.5963 21.152 26.0603 19.312 26.0603 17.2C26.0603 15.056 25.5963 13.216 24.6683 11.68C23.7723 10.112 22.4923 8.912 20.8282 8.08C19.1963 7.216 17.2603 6.784 15.0203 6.784H7.91625V27.616ZM34.9117 34L49.8878 0.399998H57.5678L72.5918 34H64.4318L52.1438 4.336H55.2158L42.8798 34H34.9117ZM42.3997 26.8L44.4638 20.896H61.7438L63.8558 26.8H42.3997ZM76.0778 34V0.399998H83.8538V27.664H100.702V34H76.0778ZM111.239 34.576C108.967 34.576 106.871 34.16 104.951 33.328C103.063 32.464 101.511 31.248 100.294 29.68L104.615 24.496C105.543 25.712 106.519 26.64 107.543 27.28C108.567 27.888 109.671 28.192 110.855 28.192C114.023 28.192 115.607 26.336 115.607 22.624V6.64H103.799V0.399998H123.335V22.192C123.335 26.352 122.311 29.456 120.263 31.504C118.215 33.552 115.207 34.576 111.239 34.576ZM141.095 34L126.599 0.399998H134.999L147.671 30.16H142.727L155.591 0.399998H163.319L148.775 34H141.095Z" fill="#A01717"/>
</svg>
